HIERARCHY
ROOT Hips
{
	OFFSET 0.000000 0.000000 0.000000
	CHANNELS 6 Xposition Yposition Zposition Zrotation Yrotation Xrotation 
	JOINT LHipJoint
	{
		OFFSET 0.000000 0.000000 0.000000
		CHANNELS 3 Zrotation Yrotation Xrotation
		JOINT LeftUpLeg
		{
			OFFSET 1.363060 -1.794630 0.839290
			CHANNELS 3 Zrotation Yrotation Xrotation
			JOINT LeftLeg
			{
				OFFSET 2.448110 -6.726130 0.000000
				CHANNELS 3 Zrotation Yrotation Xrotation
				JOINT LeftFoot
				{
					OFFSET 2.562200 -7.039590 0.000000
					CHANNELS 3 Zrotation Yrotation Xrotation
					JOINT LeftToeBase
					{
						OFFSET 0.157640 -0.433110 2.322550
						CHANNELS 3 Zrotation Yrotation Xrotation
						End Site
						{
							OFFSET 0.000000 0.000000 0.000000
						}
					}
				}
			}
		}
	}
	JOINT RHipJoint
	{
		OFFSET 0.000000 0.000000 0.000000
		CHANNELS 3 Zrotation Yrotation Xrotation
		JOINT RightUpLeg
		{
			OFFSET -1.305520 -1.794630 0.839290
			CHANNELS 3 Zrotation Yrotation Xrotation
			JOINT RightLeg
			{
				OFFSET -2.542530 -6.985550 0.000000
				CHANNELS 3 Zrotation Yrotation Xrotation
				JOINT RightFoot
				{
					OFFSET -2.568260 -7.056230 0.000000
					CHANNELS 3 Zrotation Yrotation Xrotation
					JOINT RightToeBase
					{
						OFFSET -0.164730 -0.452590 2.363150
						CHANNELS 3 Zrotation Yrotation Xrotation
						End Site
						{
							OFFSET 0.000000 0.000000 0.000000
						}
					}
				}
			}
		}
	}
}
MOTION
Frames: 11
Frame Time: 0.008333
4.199057 17.521027 0.815395 -171.229196 -85.691594 178.912996 -10.926073 1.241211 1.413575 -5.013354 4.795959 -27.070509 -1.038375 1.249355 27.438544 0.745047 3.984960 6.431891 0.947100 0.000000 -56.453900 9.782494 -1.136952 0.089237 9.202876 -7.147640 -26.467045 2.020163 -1.801526 25.201339 0.827253 7.046159 9.221899 1.661900 0.000000 -79.343800
4.072728 17.170189 0.795940 -173.721768 -85.022583 -178.418931 -10.855410 1.108313 1.269391 -5.470856 4.751463 -28.186531 -1.209273 1.375027 31.769271 0.897808 5.005470 -1.059708 0.576700 0.000000 -54.118200 9.621357 -0.988413 0.393624 9.465492 -5.025707 -28.656125 1.805615 -2.047455 30.571911 0.444508 4.200765 2.891241 0.497900 -0.000000 -75.249000
3.950196 16.821765 0.767927 -177.423401 -84.678334 -174.421114 -10.792281 0.958042 1.146619 -6.133966 4.661617 -29.811205 -1.397247 1.550825 36.556726 1.148438 5.850174 -8.441524 -0.136899 0.000000 -50.510900 9.514152 -0.812003 0.712700 9.451609 -3.099646 -31.237302 1.570787 -2.342548 36.603274 -0.042376 1.778884 -3.626700 -0.008000 -0.000001 -70.401900
3.831698 16.482707 0.733085 178.045502 -84.659464 -169.518040 -10.736845 0.798634 1.047697 -6.893472 4.453283 -31.769822 -1.558206 1.777417 41.586122 1.483736 6.605603 -15.325776 -1.081200 -0.000001 -46.032900 9.481287 -0.639102 1.011785 9.239543 -1.490399 -33.979654 1.332521 -2.679395 42.857025 -0.581060 -0.276911 -9.885378 0.030900 0.000000 -65.264800
3.716230 16.159962 0.692831 172.303572 -84.959479 -163.347585 -10.685547 0.629445 0.987008 -7.687188 4.058137 -33.917172 -1.652156 2.036171 46.634510 1.872361 7.353777 -21.379083 -2.140100 0.000000 -41.645800 9.530257 -0.501964 1.272065 8.894829 -0.291669 -36.732882 1.099284 -3.051729 48.973319 -1.114456 -2.028427 -15.565729 0.450299 -0.000000 -60.660900
3.604077 15.860775 0.650668 165.429107 -85.504742 -156.030549 -10.625019 0.455676 0.959198 -8.400030 3.500222 -36.085012 -1.661439 2.306790 51.500449 2.267754 8.104022 -26.421444 -3.208000 0.000000 -37.946000 9.662523 -0.408296 1.470943 8.539629 0.494389 -39.310519 0.873530 -3.443634 54.652564 -1.599804 -3.530950 -20.461950 1.085800 -0.000000 -57.228300
3.495333 15.591139 0.609080 157.167368 -86.204564 -147.352727 -10.538177 0.291032 0.956706 -8.961264 2.840583 -38.130451 -1.592620 2.568228 56.008618 2.625043 8.817258 -30.402345 -4.189800 -0.000000 -35.228200 9.875498 -0.348284 1.599709 8.258310 0.912949 -41.586650 0.655518 -3.836029 59.716844 -2.011011 -4.800897 -24.505887 1.800300 -0.000000 -55.207900
3.389950 15.355716 0.569802 147.247078 -86.947682 -137.078838 -10.412991 0.163737 0.968588 -9.332164 2.165119 -39.935865 -1.469508 2.809151 60.017240 2.912230 9.432864 -33.373566 -5.009300 0.000000 -33.558400 10.159228 -0.295261 1.660034 8.100637 1.051645 -43.469664 0.446148 -4.203104 64.069179 -2.338712 -5.847491 -27.711589 2.492900 0.000000 -54.586800
3.287877 15.157269 0.533493 135.573492 -87.617434 -125.141656 -10.256217 0.107521 0.984014 -9.513791 1.560623 -41.416362 -1.323023 3.029641 63.425533 3.114869 9.896991 -35.462477 -5.621700 0.000000 -32.792500 10.487253 -0.218078 1.660635 8.074144 1.014221 -44.903542 0.249734 -4.515932 67.680399 -2.585825 -6.677745 -30.163736 3.101500 -0.000001 -54.990000
3.189211 14.996823 0.500074 122.744816 -88.118659 -112.160381 -10.105544 0.137305 0.993645 -9.540260 1.093291 -42.511094 -1.181445 3.234238 66.174354 3.234246 10.185073 -36.834813 -6.020000 0.000000 -32.733100 10.807017 -0.104305 1.611386 8.150776 0.892992 -45.863054 0.073517 -4.750691 70.561387 -2.763975 -7.312099 -31.978053 3.599200 -0.000000 -55.949400
3.093578 14.873672 0.469068 110.318228 -88.421402 -99.696207 -10.008328 0.228144 0.989578 -9.461724 0.787685 -43.178568 -1.063485 3.417481 68.251659 3.283773 10.308302 -37.666415 -6.232000 0.000000 -33.179000 11.061138 0.019640 1.523291 8.286157 0.747068 -46.356305 -0.072597 -4.903362 72.743299 -2.889110 -7.786383 -33.280065 3.986899 0.000000 -57.030200
